# xmcd CD database file
#
# Track frame offsets:
#	150
#	900
#	1650
#	2400
#	3150
#	3900
#	4650
#	5400
#	6150
#	6900
#	197022
#
# Disc length: 4440 seconds
#
# Revision: 1
# Processed by: cddbd v1.5.2PL0 Copyright (c) Steve Scherf et al.
# Submitted via: CDex 2.12
#
DISCID=5111560b
DTITLE=Tom  McRae - Just like blood
DYEAR=2002
DGENRE=Blues
TTITLE0=A day like today
TTITLE1=You only disappear
TTITLE2=Ghost of a shark
TTITLE3=Stronger than dirt
TTITLE4=Overthrown
TTITLE5=Walking 2 Hawaii
TTITLE6=Mermaid blues
TTITLE7=Karaoke soul
TTITLE8=Line of fire
TTITLE9=Human remains
TTITLE10=Data
EXTD=YEAR: 2002
EXTT0=
EXTT1=
EXTT2=
EXTT3=
EXTT4=
EXTT5=
EXTT6=
EXTT7=
EXTT8=
EXTT9=
EXTT10=
PLAYORDER=
